<?xml version="1.0" standalone="no"?>
<!DOCTYPE svg PUBLIC "-//W3C//DTD SVG 20010904//EN"
 "http://www.w3.org/TR/2001/REC-SVG-20010904/DTD/svg10.dtd">
<svg version="1.0" xmlns="http://www.w3.org/2000/svg"
 width="1024.000000pt" height="1024.000000pt" viewBox="0 0 1024.000000 1024.000000"
 preserveAspectRatio="xMidYMid meet">
<metadata>
Created by potrace 1.14, written by Peter Selinger 2001-2017
</metadata>
<g transform="translate(0.000000,1024.000000) scale(0.100000,-0.100000)"
fill="#000000" stroke="none">
<path d="M5132 7898 c-113 -54 -238 -220 -367 -483 -186 -382 -311 -820 -374
-1315 -35 -275 -44 -464 -38 -845 5 -388 17 -526 78 -895 87 -534 253 -1031
454 -1360 141 -231 231 -300 378 -287 137 12 256 143 410 452 154 310 286 762
371 1270 107 641 98 1378 -25 1998 -81 411 -192 744 -345 1037 -128 244 -239
386 -337 430 -58 27 -148 26 -205 -2z m173 -285 c57 -70 159 -243 215 -368
159 -350 270 -795 325 -1295 31 -278 30 -1005 -1 -1192 l-7 -38 -296 -2 -296
-3 -3 -753 c-2 -657 -4 -753 -17 -758 -8 -4 -15 -14 -15 -23 0 -9 -14 -31 -31
-49 -17 -18 -24 -32 -17 -32 9 -1 7 -5 -4 -14 -10 -7 -15 -16 -11 -19 3 -4 1
-7 -5 -7 -10 0 -28 38 -24 53 1 4 -3 7 -8 7 -14 0 -50 61 -43 73 3 6 2 7 -4 4
-20 -13 -166 326 -237 551 -67 213 -141 553 -171 787 -8 66 -20 147 -25 180
-36 212 -44 874 -15 1181 52 552 177 1048 357 1409 97 194 224 375 264 375 7
0 39 -30 69 -67z"/>
<path d="M4852 4703 c48 -2 129 -2 180 0 51 1 12 3 -87 3 -99 0 -141 -2 -93
-3z"/>
<path d="M3942 2404 c-26 -18 -52 -65 -52 -94 0 -33 26 -75 55 -88 20 -9 325
-12 1261 -12 l1236 0 34 34 c47 47 47 95 0 142 l-34 34 -1239 0 c-1106 0
-1241 -2 -1261 -16z"/>
</g>
</svg>
